# AST/ASF file generated using VICON BodyLanguage
# -----------------------------------------------
:version 1.10
:name VICON
:units
  mass 1.0
  length 0.45
  angle deg
:documentation
   .ast/.asf automatically generated from VICON data using
   VICON BodyBuilder and BodyLanguage model FoxedUp or BRILLIANT.MOD
:root
   order TX TY TZ RX RY RZ
   axis XYZ
   position 0 0 0  
   orientation 0 -0 0 
:bonedata
  begin
     id 1 
     name lhipjoint
     direction 0.515797 -0.759363 0.396637 
     length 2.47888 
     axis 0 -0 0  XYZ
  end
  begin
     id 2 
     name lfemur
     direction 0.34202 -0.939693 0  
     length 6.81885  
     axis 0 -0 20  XYZ
    dof rx ry rz
    limits (-160.0 20.0)
           (-70.0 70.0)
           (-60.0 70.0)
  end
  begin
     id 3 
     name ltibia
     direction 0.342037 -0.939687 0   
     length 7.89258   
     axis 0 -0 20   XYZ
    dof rx
    limits (-10.0 170.0)
  end
  begin
     id 4 
     name lfoot
     direction 0.173497 -0.476678 0.861787   
     length 2.51543   
     axis -90 -1.13533e-015 20   XYZ
    dof rx rz
    limits (-45.0 90.0)
           (-70.0 20.0)
  end
  begin
     id 5 
     name ltoes
     direction 1.53564e-011 -4.21897e-011 1   
     length 1.21388   
     axis -90 -1.13533e-015 20   XYZ
    dof rx
    limits (-90.0 20.0)
  end
  begin
     id 6 
     name rhipjoint
     direction -0.489454 -0.772941 0.403729   
     length 2.43534  
     axis 0 -0 0  XYZ 
  end
  begin
     id 7 
     name rfemur
     direction -0.34202 -0.939693 0   
     length 7.10357   
     axis 0 -0 -20   XYZ
    dof rx ry rz
    limits (-160.0 20.0)
           (-70.0 70.0)
           (-70.0 60.0)
  end
  begin
     id 8 
     name rtibia
     direction -0.34202 -0.939693 0   
     length 9.16127   
     axis 0 -0 -20   XYZ
    dof rx
    limits (-10.0 170.0)
 end
 begin
     id 9 
     name rfoot
     direction -0.270974 -0.748671 0.605033   
     length 1.74894  
     axis -90 1.13533e-015 -20   XYZ
    dof rx rz
    limits (-45.0 90.0)
           (-20.0 70.0)
  end
  begin
     id 10 
     name rtoes
     direction -1.53557e-011 -4.21759e-011 1   
     length 0.787585   
     axis -90 1.13533e-015 -20   XYZ
    dof rx
    limits (-90.0 20.0)
  end
  begin
     id 11 
     name lowerback
     direction -0.0140249 0.999561 0.0260968   
     length 2.16963   
     axis 0 -0 0   XYZ
    dof rx ry rz
    limits (-20.0 45.0)
           (-30.0 30.0)
           (-30.0 30.0)
  end
  begin
     id 12 
     name upperback
     direction 0.00860018 0.999959 -0.002711   
     length 2.1726   
     axis 0 -0 0   XYZ
    dof rx ry rz
    limits (-20.0 45.0)
           (-30.0 30.0)
           (-30.0 30.0)
  end
  begin
     id 13 
     name thorax
     direction 0.015211 0.999782 -0.0143191   
     length 2.17061   
     axis 0 -0 0   XYZ
    dof rx ry rz
    limits (-20.0 45.0)
           (-30.0 30.0)
           (-30.0 30.0)
  end
  begin
     id 14 
     name lowerneck
     direction -0.0140143 0.999447 0.030145   
     length 2.26749   
     axis 0 -0 0   XYZ
    dof rx ry rz
    limits (-20.0 45.0)
           (-30.0 30.0)
           (-30.0 30.0)
  end
  begin
     id 15 
     name upperneck
     direction 0.118062 0.961438 -0.248392   
     length 2.22728   
     axis 0 -0 0   XYZ
    dof rx ry rz
    limits (-20.0 45.0)
           (-30.0 30.0)
           (-30.0 30.0)
  end
  begin
     id 16
     name head
     direction 0.0431885 0.9954 -0.085514  
     length 2.28786  
     axis 0 -0 0   XYZ
    dof rx ry rz
    limits (-20.0 45.0)
           (-30.0 30.0)
           (-30.0 30.0)
  end
  begin
     id 17 
     name lclavicle
     direction 0.912126 0.409548 0.0172323  
     length 4.31571  
     axis 0 -0 0   XYZ
    dof ry rz
    limits (-20.0 10.0)
           (0.0 20.0)
  end
  begin
     id 18 
     name lhumerus
     direction 1 -4.48977e-011 1.93091e-027   
     length 5.13658   
     axis 180 -30 -90   XYZ
    dof rx ry rz
    limits (-60.0 90.0)
           (-90.0 90.0)
           (-90.0 90.0)
  end
  begin
     id 19
     name lradius
     direction 1 -4.48916e-011 6.84018e-027   
     length 3.22473   
     axis 180 -30 -90   XYZ
    dof rx
    limits (-10.0 170.0)
  end
  begin
     id 20
     name lwrist
     direction 1 -4.48987e-011 7.01981e-027   
     length 1.61236   
     axis -4.37994e-015 90 90   XYZ
    dof ry
    limits (-180.0 0.0)
 end
  begin
     id 21 
     name lhand
     direction 1 -4.49037e-011 1.40335e-026   
     length 0.936406   
     axis -8.96029e-015 90 90   XYZ
    dof rx rz
    limits (-90.0 90.0)
           (-45.0 45.0)
  end
  begin
     id 22 
     name lfingers
     direction 1 -4.48886e-011 2.8104e-026   
     length 0.754955   
     axis -1.79203e-014 90 90   XYZ
    dof rx
    limits (0.0 90.0)
  end
  begin
     id 23
     name lthumb
     direction 0.707107 -6.34937e-011 0.707107   
     length 1.08397   
     axis -90 45 -4.48555e-014   XYZ
    dof rx rz
    limits (-45.0 45.0)
           (-45.0 45.0)
  end
  begin
     id 24 
     name rclavicle
     direction -0.947962 0.317997 0.0156638   
     length 4.86918  
     axis 0 -0 0   XYZ 
    dof ry rz
    limits (-10.0 20.0)
           (-20.0 0.0)
  end
  begin
     id 25 
     name rhumerus
     direction -1 -4.48951e-011 2.80534e-018  
     length 5.60911   
     axis 180 30 90   XYZ
    dof rx ry rz
    limits (-90.0 60.0)
           (-90.0 90.0)
           (-90.0 90.0)
  end
  begin
     id 26 
     name rradius
     direction -1 -4.4898e-011 2.11315e-027   
     length 3.38704   
     axis 180 30 90   XYZ
    dof rx
    limits (-10.0 170.0)
  end
  begin
     id 27 
     name rwrist
     direction -1 -4.48933e-011 7.02314e-027   
     length 1.69352   
     axis -4.37994e-015 -90 -90   XYZ
    dof ry
    limits (-180.0 0.0)
  end
  begin
     id 28
     name rhand
     direction -1 -4.48937e-011 1.40458e-026   
     length 0.755878   
     axis -8.96029e-015 -90 -90   XYZ
    dof rx rz
    limits (-90.0 90.0)
           (-45.0 45.0)
  end
  begin
     id 29
     name rfingers
     direction -1 -4.4901e-011 2.80737e-026   
     length 0.609409   
     axis -1.79203e-014 -90 -90   XYZ
    dof rx
    limits (0.0 90.0)
  end
  begin
     id 30
     name rthumb
     direction -0.707107 -6.34968e-011 0.707107   
     length 0.874992   
     axis -90 -45 4.48555e-014   XYZ
    dof rx rz
    limits (-45.0 45.0)
           (-45.0 45.0)
  end
:hierarchy
  begin
    root lhipjoint rhipjoint lowerback
    lhipjoint lfemur
    lfemur ltibia
    ltibia lfoot
    lfoot ltoes
    rhipjoint rfemur
    rfemur rtibia
    rtibia rfoot
    rfoot rtoes
    lowerback upperback
    upperback thorax
    thorax lowerneck lclavicle rclavicle
    lowerneck upperneck
    upperneck head
    lclavicle lhumerus
    lhumerus lradius
    lradius lwrist
    lwrist lhand lthumb
    lhand lfingers
    rclavicle rhumerus
    rhumerus rradius
    rradius rwrist
    rwrist rhand rthumb
    rhand rfingers
  end

#!OML:ASF C:\ViconDB\ViconDB\414\Spring2016\041811\Spring2016.ASF
:FULLY-SPECIFIED
:DEGREES
47
root 6.68399 18.3119 -6.35936 -178 -9.33618 179.182
lowerback -4.23065 1.00652 -3.4455
upperback 1.33116 1.5151 0.638473
thorax 3.64174 0.666975 2.70234
lowerneck -15.1884 3.22673 -3.15331
upperneck 26.9679 2.3228 6.88317
head 11.0798 1.13612 3.28544
rclavicle -2.00089e-014 -1.2921e-015
rhumerus -44.4496 -22.1188 -81.9058
rradius 31.1462
rwrist 41.5669
rhand -33.896 -15.8219
rfingers 7.12502
rthumb -7.07922 -45.6835
lclavicle -2.00089e-014 -1.2921e-015
lhumerus -37.7732 -4.77094 93.7987
lradius 25.0169
lwrist -30.1849
lhand -28.3166 15.0381
lfingers 7.12502
lthumb -1.69168 45.0112
rfemur 0.968396 -13.4277 18.9206
rtibia 12.1761
rfoot -10.0224 -0.966082
rtoes -12.4679
lfemur -7.79084 -11.797 -17.8589
ltibia 22.2459
lfoot -20.0287 8.98497
ltoes -10.0514
48
root 6.68376 18.3124 -6.36231 -177.991 -9.31632 179.156
lowerback -4.21181 0.998744 -3.48074
upperback 1.32284 1.50697 0.606324
thorax 3.62306 0.66297 2.68771
lowerneck -15.1897 3.23733 -3.09579
upperneck 26.9782 2.32114 6.87464
head 11.0855 1.13923 3.2725
rclavicle -7.82093e-015 -2.78299e-015
rhumerus -44.4411 -22.1429 -81.9368
rradius 31.1534
rwrist 41.8088
rhand -34.0279 -15.5275
rfingers 7.12502
rthumb -7.20654 -45.3848
lclavicle -7.82093e-015 -2.78299e-015
lhumerus -37.7983 -4.75402 93.7339
lradius 24.9761
lwrist -30.5888
lhand -28.3868 15.1579
lfingers 7.12502
lthumb -1.75948 45.1304
rfemur 0.965955 -13.4449 18.8892
rtibia 12.1838
rfoot -10.0388 -1.00392
rtoes -12.4823
lfemur -7.77508 -11.8071 -17.8872
ltibia 22.2387
lfoot -20.0714 9.00151
ltoes -10.0156
49
root 6.68394 18.3125 -6.36606 -177.977 -9.29915 179.166
lowerback -4.22297 1.01424 -3.44894
upperback 1.32284 1.52701 0.584166
thorax 3.62926 0.673777 2.64857
lowerneck -15.1051 3.22594 -3.07019
upperneck 26.862 2.31148 6.86444
head 11.0262 1.1388 3.25728
rclavicle 2.93829e-015 3.97569e-015
rhumerus -44.4094 -22.1841 -81.9485
rradius 31.1659
rwrist 42.0369
rhand -34.1055 -15.3929
rfingers 7.12502
rthumb -7.2814 -45.2476
lclavicle 2.93829e-015 3.97569e-015
lhumerus -37.7934 -4.77765 93.7027
lradius 24.9816
lwrist -30.7694
lhand -28.3963 15.2067
lfingers 7.12502
lthumb -1.76871 45.1791
rfemur 0.945318 -13.4298 18.9049
rtibia 12.2103
rfoot -10.0106 -1.01581
rtoes -12.4555
lfemur -7.76622 -11.8151 -17.8785
ltibia 22.2179
lfoot -20.1237 9.04828
ltoes -9.87895
50
root 6.68444 18.3128 -6.36926 -177.963 -9.27513 179.117
lowerback -4.22443 1.02229 -3.50881
upperback 1.3348 1.54212 0.557907
thorax 3.64072 0.679737 2.65629
lowerneck -15.1409 3.22484 -3.05074
upperneck 26.8702 2.29392 6.90145
head 11.0374 1.1378 3.26647
rclavicle -1.02995e-014 3.47873e-015
rhumerus -44.3355 -22.0215 -82.098
rradius 31.2582
rwrist 42.0223
rhand -34.1646 -15.8394
rfingers 7.12502
rthumb -7.33847 -45.6922
lclavicle -1.02995e-014 3.47873e-015
lhumerus -37.7499 -4.7335 93.638
lradius 24.9309
lwrist -31.0157
lhand -28.4146 15.1003
lfingers 7.12502
lthumb -1.78633 45.0726
rfemur 0.950143 -13.4542 18.8466
rtibia 12.2046
rfoot -10.0324 -1.04962
rtoes -12.4559
lfemur -7.75269 -11.8105 -17.932
ltibia 22.2137
lfoot -20.1085 9.05585
ltoes -9.95586
51
root 6.68518 18.3131 -6.37236 -177.926 -9.25669 179.074
lowerback -4.24812 1.01861 -3.55747
upperback 1.33385 1.54195 0.524276
thorax 3.65288 0.678617 2.64938
lowerneck -15.1862 3.22908 -3.09815
upperneck 26.8851 2.284 7.0005
head 11.0499 1.14079 3.31123
rclavicle -5.90763e-015 1.39149e-015
rhumerus -44.251 -21.8887 -82.2588
rradius 31.293
rwrist 41.8999
rhand -34.306 -15.9272
rfingers 7.12502
rthumb -7.47491 -45.7752
lclavicle -5.90763e-015 1.39149e-015
lhumerus -37.7364 -4.61311 93.5303
lradius 24.9274
lwrist -31.2737
lhand -28.3991 15.0525
lfingers 7.12502
lthumb -1.77135 45.0249
rfemur 0.934333 -13.4069 18.8151
rtibia 12.1871
rfoot -10.0252 -1.02228
rtoes -12.4625
lfemur -7.77278 -11.7951 -17.967
ltibia 22.2145
lfoot -20.1507 9.04038
ltoes -9.86774
52
root 6.68619 18.3127 -6.37599 -177.901 -9.23891 179.165
lowerback -4.29452 1.02377 -3.48542
upperback 1.33572 1.54616 0.538351
thorax 3.68205 0.681642 2.62497
lowerneck -15.2452 3.21301 -3.08864
upperneck 26.9119 2.25869 6.99913
head 11.0737 1.13073 3.30833
rclavicle 2.45344e-014 3.47873e-015
rhumerus -44.2126 -21.941 -82.2207
rradius 31.3273
rwrist 42.234
rhand -34.2761 -15.5734
rfingers 7.12502
rthumb -7.44609 -45.4224
lclavicle 2.45344e-014 3.47873e-015
lhumerus -37.7122 -4.63569 93.5286
lradius 24.8885
lwrist -31.3782
lhand -28.5032 15.0469
lfingers 7.12502
lthumb -1.87193 45.0184
rfemur 0.899643 -13.3791 18.9352
rtibia 12.1805
rfoot -10.029 -1.02522
rtoes -12.4324
lfemur -7.80956 -11.7708 -17.8488
ltibia 22.2153
lfoot -20.0939 9.02961
ltoes -10.0418
53
root 6.68622 18.313 -6.37996 -177.886 -9.20726 179.158
lowerback -4.30742 1.02602 -3.49977
upperback 1.34119 1.55116 0.519023
thorax 3.69484 0.683628 2.61379
lowerneck -15.2352 3.21707 -3.03538
upperneck 26.8654 2.27533 6.93595
head 11.0555 1.13822 3.27667
rclavicle -1.74651e-014 1.78906e-015
rhumerus -44.1624 -21.883 -82.2917
rradius 31.3578
rwrist 42.3744
rhand -34.3647 -15.4334
rfingers 7.12502
rthumb -7.53155 -45.2793
lclavicle -1.74651e-014 1.78906e-015
lhumerus -37.6851 -4.83163 93.5962
lradius 24.8476
lwrist -31.1944
lhand -28.6103 15.0174
lfingers 7.12502
lthumb -1.97532 44.988
rfemur 0.898668 -13.3674 18.933
rtibia 12.1736
rfoot -10.0389 -1.03301
rtoes -12.4415
lfemur -7.8022 -11.7653 -17.8543
ltibia 22.2128
lfoot -20.1255 9.04514
ltoes -9.99518
54
root 6.68488 18.3125 -6.38392 -177.877 -9.18939 179.123
lowerback -4.31664 1.0276 -3.51521
upperback 1.35151 1.55575 0.482884
thorax 3.71104 0.685389 2.58577
lowerneck -15.3078 3.14675 -3.23013
upperneck 26.9517 2.15287 7.15226
head 11.1026 1.08535 3.37761
rclavicle -4.0229e-014 1.14301e-015
rhumerus -44.1114 -21.7597 -82.4118
rradius 31.4178
rwrist 42.4387
rhand -34.4639 -15.494
rfingers 7.12502
rthumb -7.62733 -45.3365
lclavicle -4.0229e-014 1.14301e-015
lhumerus -37.7046 -4.489 93.3986
lradius 25.013
lwrist -31.4844
lhand -28.5171 15.0647
lfingers 7.12502
lthumb -1.88538 45.0361
rfemur 0.921727 -13.4004 18.8816
rtibia 12.1523
rfoot -10.0579 -1.06537
rtoes -12.4981
lfemur -7.7831 -11.8167 -17.9054
ltibia 22.2175
lfoot -20.1782 9.10955
ltoes -9.97117
55
root 6.6845 18.3125 -6.38827 -177.857 -9.17175 179.122
lowerback -4.33379 1.0243 -3.52309
upperback 1.35464 1.55251 0.483105
thorax 3.72402 0.683275 2.59068
lowerneck -15.2726 3.12533 -3.21214
upperneck 26.8915 2.13982 7.09834
head 11.075 1.07641 3.35023
rclavicle -2.22018e-014 -1.14301e-015
rhumerus -44.0751 -21.6742 -82.4568
rradius 31.465
rwrist 42.5106
rhand -34.3102 -15.2687
rfingers 7.12502
rthumb -7.47897 -45.1165
lclavicle -2.22018e-014 -1.14301e-015
lhumerus -37.668 -4.82824 93.5922
lradius 24.9893
lwrist -30.9792
lhand -28.5283 15.2412
lfingers 7.12502
lthumb -1.89619 45.2125
rfemur 0.906218 -13.4119 18.8802
rtibia 12.165
rfoot -10.0584 -1.10242
rtoes -12.5436
lfemur -7.77935 -11.7981 -17.9096
ltibia 22.2072
lfoot -20.2303 9.12817
ltoes -9.82532
56
root 6.68451 18.313 -6.39267 -177.844 -9.15268 179.142
lowerback -4.33588 1.02413 -3.5063
upperback 1.34235 1.55161 0.472565
thorax 3.71318 0.683754 2.57014
lowerneck -15.214 3.17133 -3.04916
upperneck 26.8045 2.21043 6.96311
head 11.0318 1.11163 3.27793
rclavicle -1.59369e-014 2.13694e-015
rhumerus -44.0547 -21.5406 -82.5637
rradius 31.5219
rwrist 42.4222
rhand -34.7207 -15.3495
rfingers 7.12502
rthumb -7.87517 -45.1828
lclavicle -1.59369e-014 2.13694e-015
lhumerus -37.6618 -4.75954 93.5256
lradius 24.9583
lwrist -31.185
lhand -28.5291 15.2359
lfingers 7.12502
lthumb -1.8969 45.2072
rfemur 0.897309 -13.3786 18.9058
rtibia 12.1707
rfoot -10.0379 -1.10433
rtoes -12.518
lfemur -7.77764 -11.784 -17.8847
ltibia 22.2033
lfoot -20.207 9.11719
ltoes -9.99752
